<?xml version="1.0" standalone="no"?>
<!DOCTYPE svg PUBLIC "-//W3C//DTD SVG 20010904//EN"
 "http://www.w3.org/TR/2001/REC-SVG-20010904/DTD/svg10.dtd">
<svg version="1.0" xmlns="http://www.w3.org/2000/svg"
 width="626.000000pt" height="626.000000pt" viewBox="0 0 626.000000 626.000000"
 preserveAspectRatio="xMidYMid meet">

<g transform="translate(0.000000,626.000000) scale(0.100000,-0.100000)"
fill="#000000" stroke="none">
<path d="M3056 4284 c-9 -231 -7 -226 -86 -257 -95 -36 -173 -130 -230 -278
-17 -43 -50 -161 -74 -261 -54 -224 -87 -316 -167 -466 -149 -280 -164 -331
-156 -522 3 -90 11 -145 27 -195 79 -251 267 -435 517 -507 102 -29 294 -32
393 -4 158 43 312 144 405 267 93 124 155 295 155 431 l0 68 -47 0 c-252 1
-484 179 -548 420 -19 70 -19 209 0 280 32 120 121 249 218 316 l28 20 -27 84
c-58 186 -148 309 -252 346 -61 22 -71 39 -40 71 64 68 212 106 344 87 l59 -8
-83 -7 c-129 -12 -246 -55 -259 -96 -6 -16 82 -60 159 -79 107 -28 176 -8 339
97 58 38 120 72 137 75 18 4 35 10 37 15 9 13 -169 125 -236 148 -197 67 -352
20 -476 -145 l-58 -78 -9 192 -9 192 -27 0 -27 0 -7 -206z"/>
</g>
</svg>
