<svg xmlns="http://www.w3.org/2000/svg" xmlns:xlink="http://www.w3.org/1999/xlink" width="500" zoomAndPan="magnify" viewBox="0 0 375 374.999991" height="500" preserveAspectRatio="xMidYMid meet" version="1.0"><defs><clipPath id="d1aef4baf2"><path d="M 149.527344 148.96875 L 225.277344 148.96875 L 225.277344 226.21875 L 149.527344 226.21875 Z M 149.527344 148.96875 " clip-rule="nonzero"/></clipPath><clipPath id="06ade89dd0"><path d="M 149.527344 172 L 173 172 L 173 203 L 149.527344 203 Z M 149.527344 172 " clip-rule="nonzero"/></clipPath><clipPath id="90979acfac"><path d="M 172 148.96875 L 203 148.96875 L 203 173 L 172 173 Z M 172 148.96875 " clip-rule="nonzero"/></clipPath><clipPath id="2597c67e47"><path d="M 202 172 L 225.277344 172 L 225.277344 203 L 202 203 Z M 202 172 " clip-rule="nonzero"/></clipPath><clipPath id="92fdfe4214"><path d="M 172 202 L 203 202 L 203 226.21875 L 172 226.21875 Z M 172 202 " clip-rule="nonzero"/></clipPath></defs><rect x="-37.5" width="450" fill="#ffffff" y="-37.499999" height="449.999989" fill-opacity="1"/><rect x="-37.5" width="450" fill="#ededfa" y="-37.499999" height="449.999989" fill-opacity="1"/><g clip-path="url(#d1aef4baf2)"><path fill="#3aceb5" d="M 221.117188 177.191406 C 218.480469 174.554688 214.835938 172.921875 210.8125 172.921875 L 202.066406 172.921875 L 202.066406 163.542969 C 202.066406 155.492188 195.539062 148.96875 187.492188 148.96875 C 183.464844 148.96875 179.824219 150.597656 177.183594 153.238281 C 174.546875 155.875 172.914062 159.519531 172.914062 163.542969 L 172.917969 172.921875 L 172.917969 172.925781 L 164.171875 172.921875 C 156.121094 172.921875 149.59375 179.449219 149.59375 187.496094 C 149.59375 191.523438 151.226562 195.167969 153.863281 197.800781 C 156.503906 200.441406 160.144531 202.074219 164.171875 202.074219 L 172.917969 202.074219 L 172.917969 211.453125 C 172.917969 219.5 179.441406 226.027344 187.492188 226.027344 C 191.515625 226.027344 195.160156 224.394531 197.796875 221.757812 C 200.433594 219.121094 202.066406 215.476562 202.070312 211.453125 L 202.070312 202.074219 L 210.8125 202.074219 C 218.859375 202.074219 225.386719 195.546875 225.386719 187.5 C 225.386719 183.472656 223.753906 179.828125 221.117188 177.191406 Z M 221.117188 177.191406 " fill-opacity="1" fill-rule="nonzero"/></g><g clip-path="url(#06ade89dd0)"><path fill="#3aceb5" d="M 172.917969 202.074219 L 164.171875 202.074219 C 160.144531 202.074219 156.503906 200.441406 153.863281 197.800781 C 151.226562 195.167969 149.59375 191.523438 149.59375 187.496094 C 149.59375 179.449219 156.121094 172.921875 164.171875 172.921875 L 172.917969 172.925781 C 172.917969 172.925781 172.917969 202.074219 172.917969 202.074219 Z M 172.917969 202.074219 " fill-opacity="1" fill-rule="nonzero"/></g><g clip-path="url(#90979acfac)"><path fill="#3aceb5" d="M 202.066406 172.921875 L 172.917969 172.921875 L 172.914062 163.542969 C 172.914062 159.519531 174.546875 155.875 177.183594 153.238281 C 179.824219 150.597656 183.464844 148.96875 187.492188 148.96875 C 195.539062 148.96875 202.066406 155.492188 202.066406 163.542969 Z M 202.066406 172.921875 " fill-opacity="1" fill-rule="nonzero"/></g><path fill="#6052ff" d="M 172.917969 172.921875 L 202.066406 172.921875 L 202.066406 202.074219 L 172.917969 202.074219 Z M 172.917969 172.921875 " fill-opacity="1" fill-rule="nonzero"/><g clip-path="url(#2597c67e47)"><path fill="#9955f6" d="M 210.8125 202.074219 L 202.066406 202.074219 L 202.066406 172.921875 L 210.8125 172.921875 C 214.835938 172.921875 218.480469 174.554688 221.117188 177.191406 C 223.753906 179.828125 225.386719 183.472656 225.386719 187.5 C 225.386719 195.546875 218.859375 202.074219 210.8125 202.074219 Z M 210.8125 202.074219 " fill-opacity="1" fill-rule="nonzero"/></g><g clip-path="url(#92fdfe4214)"><path fill="#9955f6" d="M 197.796875 221.757812 C 195.160156 224.394531 191.515625 226.027344 187.492188 226.027344 C 179.441406 226.027344 172.917969 219.5 172.917969 211.453125 L 172.917969 202.074219 L 202.070312 202.074219 L 202.070312 211.453125 C 202.066406 215.476562 200.433594 219.121094 197.796875 221.757812 Z M 197.796875 221.757812 " fill-opacity="1" fill-rule="nonzero"/></g><path fill="#3aceb5" d="M 195.003906 181.5625 C 194.214844 180.769531 193.175781 180.375 192.140625 180.375 C 191.101562 180.375 190.0625 180.769531 189.273438 181.5625 L 187.554688 183.28125 L 185.710938 181.433594 C 184.128906 179.851562 181.5625 179.851562 179.976562 181.433594 C 179.1875 182.226562 178.789062 183.265625 178.789062 184.300781 C 178.789062 185.335938 179.1875 186.375 179.976562 187.167969 L 181.824219 189.007812 L 187.554688 194.742188 L 193.285156 189.007812 L 195.007812 187.289062 C 196.585938 185.710938 196.585938 183.144531 195.003906 181.5625 Z M 195.003906 181.5625 " fill-opacity="1" fill-rule="nonzero"/></svg>